<?xml version="1.0" encoding="UTF-8"?>
<svg xmlns="http://www.w3.org/2000/svg" xlink="http://www.w3.org/1999/xlink" width="10pt" height="10pt" viewBox="0 0 10 10" version="1.1">
<g id="surface1">
<path style=" stroke:none;fill-rule:nonzero;fill:rgb(22.745098%,35.686275%,62.745098%);fill-opacity:1;" d="M 5 1.25 C 2.921875 1.25 1.25 2.921875 1.25 5 C 1.25 7.078125 2.921875 8.75 5 8.75 C 7.078125 8.75 8.75 7.078125 8.75 5 C 8.75 2.921875 7.078125 1.25 5 1.25 Z M 6.25 3.4375 L 5.9375 3.4375 C 5.59375 3.4375 5.46875 3.515625 5.46875 3.75 L 5.46875 4.375 L 6.25 4.375 L 6.09375 5.15625 L 5.46875 5.15625 L 5.46875 7.34375 L 4.53125 7.34375 L 4.53125 5.15625 L 3.75 5.15625 L 3.75 4.375 L 4.53125 4.375 L 4.53125 3.75 C 4.53125 3.03125 4.984375 2.65625 5.625 2.65625 L 6.25 2.65625 Z M 6.25 3.4375 "/>
</g>
</svg>
